<svg xmlns="http://www.w3.org/2000/svg" viewBox="0 0 32 32">
  <rect width="32" height="32" rx="6" fill="#6750A4"/>
  <g fill="#fff">
    <rect x="5" y="5" width="7" height="7" rx="1.5"/>
    <rect x="7" y="7" width="3" height="3" fill="#6750A4"/>
    <rect x="20" y="5" width="7" height="7" rx="1.5"/>
    <rect x="22" y="7" width="3" height="3" fill="#6750A4"/>
    <rect x="5" y="20" width="7" height="7" rx="1.5"/>
    <rect x="7" y="22" width="3" height="3" fill="#6750A4"/>
    <rect x="15" y="5" width="2" height="2"/>
    <rect x="18" y="14" width="2" height="2"/>
    <rect x="15" y="17" width="2" height="2"/>
    <rect x="21" y="17" width="2" height="2"/>
    <rect x="24" y="20" width="2" height="2"/>
    <rect x="18" y="23" width="2" height="2"/>
    <rect x="21" y="25" width="2" height="2"/>
    <rect x="25" y="25" width="2" height="2"/>
    <rect x="14" y="10" width="2" height="2"/>
    <rect x="10" y="15" width="2" height="2"/>
    <rect x="15" y="14" width="2" height="2"/>
  </g>
</svg>
